<svg width="201" height="381" viewBox="0 0 201 381" fill="none" xmlns="http://www.w3.org/2000/svg">
<path d="M48 53.4792V192H153L152.004 82.8898C152.001 82.63 152.006 82.3729 152.008 82.113C152.037 78.2374 151.191 46.1146 116 25C86.4192 7.25154 67.1053 16.5705 60.2672 21.2979C58.335 22.6337 56.9946 24.5907 56.0069 26.7219L51.9856 35.3994C49.3601 41.0651 48 47.2347 48 53.4792Z" fill="#007ACC" stroke="black" stroke-width="10"/>
<path d="M24 212V222H176V212C176 200.954 167.046 192 156 192H44C32.9543 192 24 200.954 24 212Z" fill="#FFB900" stroke="black" stroke-width="10"/>
<path d="M5 376V242C5 230.954 13.9543 222 25 222H100.5H176C187.046 222 196 230.954 196 242V376H5Z" fill="black" fill-opacity="0.7" stroke="black" stroke-width="10"/>
<path d="M22.0712 259.229L22 268.377H36.5901H51.1802V309.689L51.1802 351H61.5H71.8198V309.689L71.8198 268.377H86.4099H101V259.406C101 254.442 100.893 250.293 100.751 250.186C100.644 250.044 82.8869 249.974 61.3577 250.009L22.1779 250.115L22.0712 259.229Z" fill="#007ACC"/>
<path d="M152.44 249.918C158.102 251.333 162.42 253.846 166.383 257.951C168.436 260.145 171.479 264.144 171.727 265.099C171.798 265.382 162.101 271.894 156.227 275.539C156.014 275.68 155.165 274.76 154.21 273.345C151.343 269.169 148.335 267.364 143.735 267.046C136.976 266.585 132.623 270.124 132.658 276.034C132.658 277.768 132.906 278.794 133.614 280.21C135.1 283.289 137.86 285.129 146.53 288.88C162.49 295.745 169.32 300.275 173.567 306.716C178.309 313.899 179.371 325.365 176.15 333.894C172.611 343.165 163.835 349.464 151.485 351.552C147.663 352.225 138.603 352.119 134.498 351.375C125.545 349.783 117.052 345.359 111.815 339.556C109.762 337.291 105.763 331.381 106.011 330.956C106.117 330.815 107.037 330.249 108.064 329.647C109.054 329.081 112.806 326.922 116.344 324.87L122.75 321.154L124.094 323.136C125.97 326.002 130.075 329.93 132.552 331.24C139.665 334.991 149.432 334.46 154.245 330.143C156.298 328.267 157.147 326.321 157.147 323.454C157.147 320.871 156.828 319.738 155.484 317.792C153.75 315.315 150.211 313.227 140.161 308.874C128.659 303.92 123.705 300.841 119.175 295.958C116.557 293.127 114.079 288.597 113.053 284.81C112.204 281.661 111.992 273.769 112.664 270.584C115.035 259.472 123.422 251.722 135.525 249.422C139.453 248.679 148.583 248.962 152.44 249.918Z" fill="#007ACC"/>
<rect x="106" y="227" width="31" height="145" fill="white" fill-opacity="0.4"/>
<ellipse cx="100.5" cy="65.2215" rx="54.7403" ry="36.7913" transform="rotate(45.9635 100.5 65.2215)" fill="white" fill-opacity="0.4"/>
<rect x="53" y="186" width="95" height="11" fill="#007ACC"/>
<rect x="29" y="216" width="142" height="11" fill="#FFB900"/>
<path d="M94 118C105.938 123.664 112.744 124.579 125 123.865V227H94V118Z" fill="white" fill-opacity="0.4"/>
</svg>
