<svg width="201" height="382" viewBox="0 0 201 382" fill="none" xmlns="http://www.w3.org/2000/svg">
<path d="M5 377V243C5 231.954 13.9543 223 25 223H100.5H176C187.046 223 196 231.954 196 243V377H5Z" fill="#383838" stroke="black" stroke-width="10"/>
<path d="M24 213V223H176V213C176 201.954 167.046 193 156 193H44C32.9543 193 24 201.954 24 213Z" fill="#FFB900" stroke="black" stroke-width="10"/>
<rect x="53" y="187" width="95" height="11" fill="#007ACC"/>
<rect x="29" y="217" width="142" height="11" fill="#FFB900"/>
<path d="M57.5 15.5C72 4.00001 86 8 117 29.5C173.157 68.4479 151 190.5 151 190.5H49C49 190.5 43.0849 26.9327 57.5 15.5Z" fill="#007ACC"/>
<rect x="104" y="228" width="35" height="144" fill="url(#paint0_linear)" fill-opacity="0.42"/>
<ellipse cx="104" cy="58" rx="56.1563" ry="24.9895" transform="rotate(45.9635 104 58)" fill="white" fill-opacity="0.3"/>
<path d="M50 55.5C49 70.5 48 193 48 193H153L152.002 85.7087C152.001 85.5696 152.001 85.4492 151.999 85.3101C151.956 82.8567 150.623 56.9643 114 27C75.5 -4.5 60 15.5 60 15.5C50 27 51 40.5 50 55.5Z" stroke="black" stroke-width="10"/>
<path d="M96 198H129V228H96V198Z" fill="white" fill-opacity="0.5"/>
<path d="M53 188H148V198H53V188Z" fill="#007ACC"/>
<path d="M96 102.5C107.5 109 114 111.5 129 112.769V198H96V102.5Z" fill="white" fill-opacity="0.13"/>
<g filter="url(#filter0_d)">
<path d="M22.0712 260.229L22 269.377H36.5901H51.1802V310.689L51.1802 352H61.5H71.8198V310.689L71.8198 269.377H86.4099H101V260.406C101 255.442 100.893 251.293 100.751 251.186C100.644 251.044 82.8869 250.974 61.3577 251.009L22.1779 251.115L22.0712 260.229Z" fill="#007ACC"/>
<path d="M152.44 250.918C158.102 252.333 162.42 254.846 166.383 258.951C168.436 261.145 171.479 265.144 171.727 266.099C171.798 266.382 162.101 272.894 156.227 276.539C156.014 276.68 155.165 275.76 154.21 274.345C151.343 270.169 148.335 268.364 143.735 268.046C136.976 267.585 132.623 271.124 132.658 277.034C132.658 278.768 132.906 279.794 133.614 281.21C135.1 284.289 137.86 286.129 146.53 289.88C162.49 296.745 169.32 301.275 173.567 307.716C178.309 314.899 179.371 326.365 176.15 334.894C172.611 344.165 163.835 350.464 151.485 352.552C147.663 353.225 138.603 353.119 134.498 352.375C125.545 350.783 117.052 346.359 111.815 340.556C109.762 338.291 105.763 332.381 106.011 331.956C106.117 331.815 107.037 331.249 108.064 330.647C109.054 330.081 112.806 327.922 116.344 325.87L122.75 322.154L124.094 324.136C125.97 327.002 130.075 330.93 132.552 332.24C139.665 335.991 149.432 335.46 154.245 331.143C156.298 329.267 157.147 327.321 157.147 324.454C157.147 321.871 156.828 320.738 155.484 318.792C153.75 316.315 150.211 314.227 140.161 309.874C128.659 304.92 123.705 301.841 119.175 296.958C116.557 294.127 114.079 289.597 113.053 285.81C112.204 282.661 111.992 274.769 112.664 271.584C115.035 260.472 123.422 252.722 135.525 250.422C139.453 249.679 148.583 249.962 152.44 250.918Z" fill="#007ACC"/>
</g>
<defs>
<filter id="filter0_d" x="18" y="250" width="164" height="111" filterUnits="userSpaceOnUse" color-interpolation-filters="sRGB">
<feFlood flood-opacity="0" result="BackgroundImageFix"/>
<feColorMatrix in="SourceAlpha" type="matrix" values="0 0 0 0 0 0 0 0 0 0 0 0 0 0 0 0 0 0 127 0"/>
<feOffset dy="4"/>
<feGaussianBlur stdDeviation="2"/>
<feColorMatrix type="matrix" values="0 0 0 0 0 0 0 0 0 0 0 0 0 0 0 0 0 0 0.25 0"/>
<feBlend mode="normal" in2="BackgroundImageFix" result="effect1_dropShadow"/>
<feBlend mode="normal" in="SourceGraphic" in2="effect1_dropShadow" result="shape"/>
</filter>
<linearGradient id="paint0_linear" x1="121.5" y1="228" x2="121" y2="372" gradientUnits="userSpaceOnUse">
<stop stop-color="white"/>
<stop offset="0.895833" stop-color="white" stop-opacity="0"/>
</linearGradient>
</defs>
</svg>
